<?xml version="1.0" encoding="UTF-8"?>
<svg xmlns="http://www.w3.org/2000/svg" xmlns:xlink="http://www.w3.org/1999/xlink" width="20px" height="20px" viewBox="0 0 20 20" version="1.1">
<g id="surface1">
<path style=" stroke:none;fill-rule:nonzero;fill:rgb(90.588235%,43.921569%,10.588235%);fill-opacity:1;" d="M 14.398438 17.667969 C 15.5 17.667969 16.5 17.265625 17.265625 16.433594 C 17.734375 15.933594 18 15.332031 18 14.734375 C 18 14.300781 17.832031 13.898438 17.433594 13.601562 L 14.800781 11.734375 C 14.398438 11.464844 14.066406 11.332031 13.734375 11.332031 C 13.332031 11.332031 13 11.566406 12.601562 11.933594 L 12 12.535156 C 11.898438 12.632812 11.800781 12.667969 11.667969 12.667969 C 11.535156 12.667969 11.398438 12.601562 11.332031 12.566406 C 10.800781 12.265625 9.898438 11.5 9.035156 10.667969 C 8.199219 9.832031 7.398438 8.898438 7.132812 8.367188 C 7.101562 8.265625 7.035156 8.167969 7.035156 8.035156 C 7.035156 7.933594 7.066406 7.800781 7.167969 7.699219 L 7.765625 7.066406 C 8.132812 6.667969 8.367188 6.332031 8.367188 5.933594 C 8.367188 5.632812 8.234375 5.300781 7.933594 4.867188 L 6.066406 2.265625 C 5.765625 1.832031 5.332031 1.667969 4.867188 1.667969 C 4.300781 1.667969 3.699219 1.933594 3.199219 2.398438 C 2.367188 3.234375 2 4.199219 2 5.300781 C 2 7.765625 3.898438 10.765625 6.398438 13.265625 C 8.867188 15.734375 11.898438 17.667969 14.398438 17.667969 Z M 14.398438 17.667969 "/>
</g>
</svg>
