<?xml version="1.0" encoding="UTF-8"?>
<svg xmlns="http://www.w3.org/2000/svg" xmlns:xlink="http://www.w3.org/1999/xlink" width="175px" height="46px" viewBox="0 0 173 46" version="1.1">
<g id="surface1">
<path style=" stroke:none;fill-rule:evenodd;fill:rgb(95.294118%,42.352941%,13.72549%);fill-opacity:1;" d="M 14.238281 26.097656 C 14.601562 25 15.257812 23.613281 15.75 22.445312 L 18.78125 15.363281 C 19.210938 14.203125 19.71875 13.078125 20.308594 11.996094 L 20.308594 26.914062 L 25.078125 26.847656 C 24.992188 23.277344 25.347656 2.023438 24.996094 0.722656 C 24.578125 0.46875 23.652344 0.621094 23.042969 0.621094 C 19.9375 0.621094 20.460938 0.203125 19.742188 1.90625 C 18.59375 4.652344 12.988281 17.96875 12.648438 18.40625 L 6.832031 4.535156 C 6.5 3.738281 6.171875 2.992188 5.886719 2.257812 L 4.929688 0 C 3.28125 0.441406 1.675781 1.027344 0.128906 1.746094 C 0.128906 9.675781 0 19.269531 0.128906 26.929688 L 4.898438 26.890625 L 4.898438 12.652344 C 5.527344 13.75 6.078125 14.886719 6.542969 16.0625 C 7.40625 17.917969 10.65625 25.554688 11.078125 26.140625 Z M 14.238281 26.097656 "/>
<path style=" stroke:none;fill-rule:evenodd;fill:rgb(95.294118%,42.352941%,13.72549%);fill-opacity:1;" d="M 67.46875 21.328125 C 65.835938 21.414062 64.074219 21.328125 62.425781 21.328125 C 60.773438 21.328125 59.261719 21.632812 58.109375 20.53125 C 56.277344 18.773438 55.5625 14.480469 56.230469 10.929688 C 57.226562 5.667969 59.605469 6.222656 62.425781 6.222656 C 65.535156 6.222656 69.183594 6.453125 72.273438 6.222656 L 70.988281 0.636719 C 68.539062 0.472656 65.769531 0.636719 63.28125 0.636719 C 60.796875 0.636719 58.273438 0.285156 56.230469 1.460938 C 48.875 5.839844 49.152344 24.035156 57.257812 26.621094 C 59.089844 27.207031 62.628906 26.949219 64.746094 26.949219 C 67.144531 26.949219 70.035156 27.140625 72.375 26.949219 C 72.144531 25.722656 72.375 15.953125 72.289062 13.632812 C 70.644531 14.0625 69.039062 14.628906 67.492188 15.324219 Z M 67.46875 21.328125 "/>
<path style=" stroke:none;fill-rule:evenodd;fill:rgb(95.294118%,42.352941%,13.72549%);fill-opacity:1;" d="M 28.996094 6.207031 C 32.679688 6.382812 37.601562 6.207031 41.511719 6.207031 C 43.089844 6.207031 44.085938 6 44.777344 7.375 C 45.351562 8.714844 45.386719 10.226562 44.878906 11.59375 C 44.289062 13.011719 43.519531 13.054688 41.875 13.054688 L 33.734375 13.054688 L 33.734375 8.511719 C 32.109375 8.941406 30.519531 9.496094 28.980469 10.179688 L 28.980469 26.890625 C 30.558594 27.074219 32.152344 27.097656 33.734375 26.957031 L 33.777344 18.730469 C 36.808594 18.167969 42.84375 19.398438 45.882812 18.085938 C 52.722656 15.070312 51.609375 0.816406 42.886719 0.621094 C 40.429688 0.570312 32.316406 0.480469 30.246094 0.628906 Z M 28.996094 6.207031 "/>
<path style=" stroke:none;fill-rule:evenodd;fill:rgb(35.294118%,36.078431%,36.470588%);fill-opacity:1;" d="M 103.640625 0.613281 C 100.789062 0.613281 97.933594 0.613281 95.078125 0.613281 C 92.4375 0.613281 89.195312 0.175781 87.046875 1.140625 C 81.863281 3.46875 81.550781 11.308594 85.046875 14.710938 C 87.03125 16.640625 88.933594 16.648438 92.140625 16.648438 C 93.59375 16.648438 94.996094 16.648438 96.421875 16.648438 C 97.847656 16.648438 98.886719 17.109375 98.996094 18.742188 C 99.117188 20.65625 97.96875 21.292969 96.675781 21.304688 L 84.042969 21.304688 L 82.765625 27.015625 C 84.175781 27.132812 85.59375 27.148438 87.007812 27.066406 C 90.128906 27.066406 97.25 27.402344 99.476562 26.570312 C 104.5625 24.6875 105.566406 17.289062 102.035156 13.144531 C 99.5625 10.222656 94.859375 10.871094 90.917969 10.871094 C 89.40625 10.871094 88.390625 10.929688 87.960938 9.300781 C 87.742188 8.664062 87.8125 7.960938 88.152344 7.378906 C 88.496094 6.796875 89.074219 6.394531 89.734375 6.28125 C 90.628906 6.097656 100.761719 6.28125 102.410156 6.214844 Z M 103.640625 0.613281 "/>
<path style=" stroke:none;fill-rule:evenodd;fill:rgb(35.294118%,36.078431%,36.470588%);fill-opacity:1;" d="M 134.839844 17.296875 C 135.171875 14.433594 134.59375 11.539062 133.1875 9.023438 C 130.5 4.578125 124.464844 4.601562 121.367188 7.835938 C 117.878906 11.484375 118.179688 20.035156 120.488281 23.578125 C 121.667969 25.539062 123.734375 26.792969 126.015625 26.921875 C 129.714844 26.980469 132.554688 25.820312 134.097656 21.621094 C 134.824219 19.699219 134.65625 18.78125 134.824219 17.296875 M 123.921875 15.691406 C 123.921875 13.609375 124.566406 11.652344 125.628906 11.03125 C 128.8125 9.171875 130.324219 14.320312 129.523438 18.546875 C 128.746094 22.640625 125.808594 22.480469 124.648438 20.34375 C 123.925781 18.984375 123.941406 17.238281 123.941406 15.691406 Z M 123.921875 15.691406 "/>
<path style=" stroke:none;fill-rule:evenodd;fill:rgb(35.294118%,36.078431%,36.470588%);fill-opacity:1;" d="M 168.339844 19.859375 C 167.910156 20.203125 168.121094 20.1875 167.765625 20.875 C 166.914062 22.53125 163.035156 23.300781 162.953125 17.953125 L 173.210938 17.953125 C 173.53125 11.339844 171.226562 6.578125 167.097656 5.820312 C 161.957031 4.878906 158.710938 8.339844 157.976562 13.699219 C 156.257812 26.242188 165.046875 29.03125 169.679688 25.664062 C 171.5 24.242188 172.691406 22.15625 173 19.859375 Z M 162.824219 14.105469 C 163.246094 8.625 168.246094 8.828125 168.332031 14.105469 Z M 162.824219 14.105469 "/>
<path style=" stroke:none;fill-rule:evenodd;fill:rgb(35.294118%,36.078431%,36.470588%);fill-opacity:1;" d="M 144.128906 26.285156 C 144.128906 23.238281 144.128906 20.1875 144.128906 17.136719 C 144.128906 14.214844 144.128906 11.070312 146.308594 10.878906 C 147.660156 10.753906 148.234375 11.324219 148.453125 12.71875 C 148.75 14.609375 148.65625 24.050781 148.632812 26.269531 L 153.636719 26.269531 C 153.730469 23.351562 153.636719 20.226562 153.636719 17.289062 C 153.636719 14.355469 153.839844 11.121094 153.148438 8.960938 C 151.964844 5.308594 147.964844 5.132812 145.9375 6.542969 C 144.730469 7.382812 144.558594 8.179688 144.089844 8.628906 C 144.164062 7.871094 144.140625 7.105469 144.019531 6.351562 C 143.453125 6.046875 139.933594 6.097656 139.089844 6.300781 L 139.089844 26.285156 Z M 144.128906 26.285156 "/>
<path style=" stroke:none;fill-rule:evenodd;fill:rgb(35.294118%,36.078431%,36.470588%);fill-opacity:1;" d="M 113.175781 10.410156 C 113.953125 10.410156 115.03125 10.574219 115.675781 10.296875 C 115.84375 8.984375 115.84375 7.65625 115.675781 6.34375 C 115.058594 6.058594 113.941406 6.234375 113.167969 6.234375 L 113.167969 0.621094 L 108.152344 0.621094 L 108.152344 6.226562 L 106.125 6.226562 L 106.125 10.375 L 108.175781 10.375 C 108.175781 13.816406 107.929688 20.847656 108.613281 23.746094 C 109.179688 26.132812 110.792969 26.722656 112.695312 26.730469 C 116.367188 26.730469 115.605469 26.34375 115.605469 22.058594 C 113.425781 22.167969 113.15625 21.4375 113.15625 18.707031 Z M 113.175781 10.410156 "/>
<path style=" stroke:none;fill-rule:nonzero;fill:rgb(35.294118%,36.078431%,36.470588%);fill-opacity:1;" d="M 4.726562 43.414062 C 4.726562 43.835938 4.648438 44.253906 4.484375 44.640625 C 4.332031 45.007812 4.078125 45.328125 3.757812 45.5625 C 3.398438 45.808594 2.972656 45.933594 2.535156 45.917969 C 2.097656 45.921875 1.664062 45.808594 1.285156 45.582031 C 0.921875 45.355469 0.621094 45.035156 0.414062 44.65625 C 0.175781 44.25 0.0351562 43.792969 0 43.320312 L 1.003906 43.320312 C 1.027344 43.589844 1.097656 43.851562 1.214844 44.09375 C 1.328125 44.339844 1.5 44.550781 1.714844 44.714844 C 1.945312 44.878906 2.21875 44.964844 2.5 44.957031 C 2.859375 44.980469 3.207031 44.824219 3.429688 44.539062 C 3.652344 44.226562 3.765625 43.84375 3.75 43.460938 C 3.761719 43.136719 3.683594 42.820312 3.527344 42.539062 C 3.382812 42.3125 3.191406 42.121094 2.964844 41.976562 C 2.675781 41.808594 2.371094 41.660156 2.058594 41.539062 C 1.6875 41.378906 1.328125 41.199219 0.980469 40.992188 C 0.679688 40.796875 0.429688 40.53125 0.253906 40.21875 C 0.0585938 39.789062 -0.03125 39.320312 0 38.851562 C -0.0078125 38.410156 0.0820312 37.972656 0.269531 37.574219 C 0.425781 37.226562 0.675781 36.929688 0.996094 36.71875 C 1.355469 36.507812 1.765625 36.40625 2.179688 36.421875 C 2.804688 36.386719 3.410156 36.632812 3.839844 37.085938 C 4.261719 37.550781 4.519531 38.148438 4.566406 38.777344 L 3.589844 38.777344 C 3.539062 38.417969 3.386719 38.082031 3.15625 37.800781 C 2.914062 37.511719 2.554688 37.355469 2.179688 37.375 C 1.84375 37.363281 1.515625 37.503906 1.292969 37.757812 C 1.054688 38.054688 0.9375 38.433594 0.960938 38.816406 C 0.945312 39.121094 1.023438 39.425781 1.175781 39.691406 C 1.3125 39.90625 1.496094 40.085938 1.714844 40.21875 C 2 40.378906 2.296875 40.523438 2.601562 40.648438 C 2.984375 40.800781 3.351562 40.988281 3.699219 41.203125 C 4.007812 41.398438 4.257812 41.671875 4.425781 42 C 4.640625 42.4375 4.742188 42.925781 4.71875 43.414062 "/>
<path style=" stroke:none;fill-rule:nonzero;fill:rgb(35.294118%,36.078431%,36.470588%);fill-opacity:1;" d="M 8.539062 36.539062 L 9.457031 36.539062 L 9.457031 45.824219 L 8.539062 45.824219 Z M 8.539062 36.539062 "/>
<path style=" stroke:none;fill-rule:nonzero;fill:rgb(35.294118%,36.078431%,36.470588%);fill-opacity:1;" d="M 20.601562 36.699219 L 20.601562 45.824219 L 19.691406 45.824219 L 19.691406 38.539062 L 17.46875 45.824219 L 16.652344 45.824219 L 14.421875 38.566406 L 14.421875 45.824219 L 13.503906 45.824219 L 13.503906 36.699219 L 14.601562 36.699219 L 17.074219 44.363281 L 19.507812 36.699219 Z M 20.601562 36.699219 "/>
<path style=" stroke:none;fill-rule:nonzero;fill:rgb(35.294118%,36.078431%,36.470588%);fill-opacity:1;" d="M 26.828125 41.078125 C 27.277344 41.121094 27.722656 40.949219 28.027344 40.617188 C 28.296875 40.242188 28.429688 39.78125 28.398438 39.320312 C 28.4375 38.839844 28.304688 38.359375 28.027344 37.96875 C 27.71875 37.640625 27.277344 37.472656 26.828125 37.515625 L 25.570312 37.515625 L 25.570312 41.058594 Z M 25.570312 42.078125 L 25.570312 45.824219 L 24.65625 45.824219 L 24.65625 36.507812 L 26.894531 36.507812 C 27.582031 36.449219 28.253906 36.71875 28.710938 37.238281 C 29.144531 37.824219 29.359375 38.546875 29.316406 39.273438 C 29.363281 40.007812 29.140625 40.730469 28.691406 41.304688 C 28.234375 41.8125 27.574219 42.082031 26.894531 42.035156 Z M 25.570312 42.078125 "/>
<path style=" stroke:none;fill-rule:nonzero;fill:rgb(35.294118%,36.078431%,36.470588%);fill-opacity:1;" d="M 33.894531 44.890625 L 36.410156 44.890625 L 36.410156 45.824219 L 32.984375 45.824219 L 32.984375 36.539062 L 33.894531 36.539062 Z M 33.894531 44.890625 "/>
<path style=" stroke:none;fill-rule:nonzero;fill:rgb(35.294118%,36.078431%,36.470588%);fill-opacity:1;" d="M 40.851562 37.507812 L 40.851562 40.683594 L 43.539062 40.683594 L 43.539062 41.605469 L 40.851562 41.605469 L 40.851562 44.847656 L 43.847656 44.847656 L 43.847656 45.824219 L 39.933594 45.824219 L 39.933594 36.539062 L 43.847656 36.539062 L 43.847656 37.507812 Z M 40.851562 37.507812 "/>
<path style=" stroke:none;fill-rule:nonzero;fill:rgb(35.294118%,36.078431%,36.470588%);fill-opacity:1;" d="M 49.910156 41.4375 C 49.898438 41.019531 50.027344 40.613281 50.273438 40.277344 C 50.464844 39.980469 50.792969 39.800781 51.148438 39.800781 C 51.5 39.800781 51.832031 39.980469 52.023438 40.277344 C 52.265625 40.613281 52.390625 41.019531 52.378906 41.4375 C 52.394531 41.847656 52.265625 42.246094 52.023438 42.574219 C 51.828125 42.871094 51.5 43.046875 51.148438 43.046875 C 50.796875 43.046875 50.46875 42.871094 50.273438 42.574219 C 50.027344 42.246094 49.898438 41.847656 49.910156 41.4375 "/>
<path style=" stroke:none;fill-rule:nonzero;fill:rgb(35.294118%,36.078431%,36.470588%);fill-opacity:1;" d="M 60.898438 41.078125 C 61.347656 41.121094 61.792969 40.949219 62.097656 40.617188 C 62.367188 40.242188 62.5 39.78125 62.46875 39.320312 C 62.507812 38.839844 62.375 38.359375 62.097656 37.96875 C 61.789062 37.640625 61.347656 37.472656 60.898438 37.515625 L 59.640625 37.515625 L 59.640625 41.058594 Z M 59.640625 42.078125 L 59.640625 45.824219 L 58.726562 45.824219 L 58.726562 36.507812 L 60.980469 36.507812 C 61.664062 36.449219 62.339844 36.71875 62.796875 37.238281 C 63.230469 37.824219 63.441406 38.546875 63.398438 39.273438 C 63.445312 40.003906 63.226562 40.726562 62.78125 41.304688 C 62.320312 41.8125 61.660156 42.078125 60.980469 42.035156 Z M 59.640625 42.078125 "/>
<path style=" stroke:none;fill-rule:nonzero;fill:rgb(35.294118%,36.078431%,36.470588%);fill-opacity:1;" d="M 67.921875 36.507812 L 67.921875 42.078125 C 67.867188 42.785156 68.027344 43.488281 68.378906 44.101562 C 68.660156 44.527344 69.148438 44.777344 69.65625 44.75 C 70.164062 44.765625 70.636719 44.519531 70.914062 44.09375 C 71.257812 43.480469 71.414062 42.78125 71.367188 42.078125 L 71.367188 36.507812 L 72.28125 36.507812 L 72.28125 42.078125 C 72.351562 43.085938 72.09375 44.085938 71.554688 44.933594 C 71.097656 45.535156 70.390625 45.886719 69.636719 45.886719 C 68.882812 45.886719 68.171875 45.535156 67.71875 44.933594 C 67.175781 44.085938 66.921875 43.085938 66.992188 42.078125 L 66.992188 36.507812 Z M 67.921875 36.507812 "/>
<path style=" stroke:none;fill-rule:nonzero;fill:rgb(35.294118%,36.078431%,36.470588%);fill-opacity:1;" d="M 77.203125 41.160156 L 78.539062 41.160156 C 79.574219 41.160156 80.097656 40.558594 80.097656 39.371094 C 80.097656 38.179688 79.574219 37.574219 78.539062 37.574219 L 77.203125 37.574219 Z M 80.046875 45.824219 L 78.191406 42.027344 L 77.203125 42.027344 L 77.203125 45.824219 L 76.324219 45.824219 L 76.324219 36.507812 L 78.65625 36.507812 C 79.339844 36.453125 80.003906 36.722656 80.460938 37.238281 C 80.886719 37.816406 81.101562 38.527344 81.0625 39.246094 C 81.09375 39.890625 80.925781 40.527344 80.582031 41.070312 C 80.253906 41.535156 79.75 41.847656 79.1875 41.933594 L 81.113281 45.765625 Z M 80.046875 45.824219 "/>
<path style=" stroke:none;fill-rule:nonzero;fill:rgb(35.294118%,36.078431%,36.470588%);fill-opacity:1;" d="M 85.648438 37.507812 L 85.648438 40.683594 L 88.339844 40.683594 L 88.339844 41.605469 L 85.648438 41.605469 L 85.648438 44.847656 L 88.644531 44.847656 L 88.644531 45.824219 L 84.734375 45.824219 L 84.734375 36.539062 L 88.644531 36.539062 L 88.644531 37.507812 Z M 85.648438 37.507812 "/>
<path style=" stroke:none;fill-rule:nonzero;fill:rgb(35.294118%,36.078431%,36.470588%);fill-opacity:1;" d="M 94.707031 41.4375 C 94.695312 41.019531 94.824219 40.613281 95.070312 40.277344 C 95.261719 39.980469 95.59375 39.800781 95.945312 39.800781 C 96.300781 39.800781 96.628906 39.980469 96.820312 40.277344 C 97.066406 40.613281 97.191406 41.019531 97.179688 41.4375 C 97.191406 41.847656 97.066406 42.246094 96.820312 42.574219 C 96.625 42.871094 96.296875 43.046875 95.945312 43.046875 C 95.59375 43.046875 95.265625 42.871094 95.070312 42.574219 C 94.824219 42.246094 94.695312 41.847656 94.707031 41.4375 "/>
<path style=" stroke:none;fill-rule:nonzero;fill:rgb(35.294118%,36.078431%,36.470588%);fill-opacity:1;" d="M 107.414062 42.742188 L 106.125 38.046875 L 104.832031 42.742188 Z M 107.675781 43.679688 L 104.5625 43.679688 L 103.945312 45.824219 L 102.964844 45.824219 L 105.589844 36.707031 L 106.621094 36.707031 L 109.238281 45.824219 L 108.308594 45.824219 Z M 107.675781 43.679688 "/>
<path style=" stroke:none;fill-rule:nonzero;fill:rgb(35.294118%,36.078431%,36.470588%);fill-opacity:1;" d="M 113.6875 37.507812 L 113.6875 40.683594 L 116.375 40.683594 L 116.375 41.605469 L 113.6875 41.605469 L 113.6875 44.847656 L 116.679688 44.847656 L 116.679688 45.824219 L 112.769531 45.824219 L 112.769531 36.539062 L 116.679688 36.539062 L 116.679688 37.507812 Z M 113.6875 37.507812 "/>
<path style=" stroke:none;fill-rule:nonzero;fill:rgb(35.294118%,36.078431%,36.470588%);fill-opacity:1;" d="M 124.921875 43.414062 C 124.925781 43.835938 124.84375 44.253906 124.683594 44.640625 C 124.527344 45.007812 124.277344 45.328125 123.957031 45.5625 C 123.601562 45.808594 123.175781 45.933594 122.742188 45.917969 C 122.300781 45.925781 121.867188 45.808594 121.484375 45.582031 C 121.121094 45.355469 120.820312 45.035156 120.613281 44.65625 C 120.390625 44.246094 120.261719 43.789062 120.234375 43.320312 L 121.210938 43.320312 C 121.234375 43.589844 121.304688 43.851562 121.417969 44.09375 C 121.535156 44.339844 121.707031 44.550781 121.921875 44.714844 C 122.148438 44.878906 122.425781 44.964844 122.707031 44.957031 C 123.066406 44.976562 123.414062 44.820312 123.636719 44.53125 C 123.859375 44.21875 123.972656 43.835938 123.957031 43.453125 C 123.972656 43.128906 123.894531 42.808594 123.730469 42.53125 C 123.589844 42.304688 123.398438 42.113281 123.171875 41.96875 C 122.882812 41.800781 122.582031 41.65625 122.269531 41.53125 C 121.898438 41.375 121.535156 41.191406 121.1875 40.984375 C 120.882812 40.792969 120.632812 40.527344 120.460938 40.210938 C 120.246094 39.789062 120.148438 39.320312 120.167969 38.851562 C 120.160156 38.410156 120.253906 37.972656 120.4375 37.574219 C 120.601562 37.21875 120.867188 36.921875 121.203125 36.71875 C 121.554688 36.511719 121.960938 36.40625 122.371094 36.421875 C 122.996094 36.386719 123.601562 36.632812 124.03125 37.085938 C 124.453125 37.550781 124.710938 38.148438 124.757812 38.777344 L 123.789062 38.777344 C 123.738281 38.417969 123.589844 38.078125 123.351562 37.800781 C 123.117188 37.519531 122.765625 37.363281 122.402344 37.375 C 122.0625 37.363281 121.738281 37.503906 121.515625 37.757812 C 121.277344 38.058594 121.164062 38.433594 121.1875 38.816406 C 121.175781 39.121094 121.25 39.425781 121.398438 39.691406 C 121.535156 39.90625 121.71875 40.085938 121.9375 40.21875 C 122.222656 40.378906 122.519531 40.523438 122.824219 40.648438 C 123.203125 40.800781 123.570312 40.988281 123.921875 41.203125 C 124.230469 41.398438 124.480469 41.671875 124.648438 42 C 124.859375 42.4375 124.960938 42.925781 124.9375 43.414062 "/>
<path style=" stroke:none;fill-rule:nonzero;fill:rgb(35.294118%,36.078431%,36.470588%);fill-opacity:1;" d="M 133.078125 36.539062 L 133.078125 37.507812 L 131.082031 37.507812 L 131.082031 45.824219 L 130.164062 45.824219 L 130.164062 37.507812 L 128.164062 37.507812 L 128.164062 36.539062 Z M 133.078125 36.539062 "/>
<path style=" stroke:none;fill-rule:nonzero;fill:rgb(35.294118%,36.078431%,36.470588%);fill-opacity:1;" d="M 142.003906 36.539062 L 142.003906 45.824219 L 141.082031 45.824219 L 141.082031 41.53125 L 137.484375 41.53125 L 137.484375 45.824219 L 136.566406 45.824219 L 136.566406 36.539062 L 137.484375 36.539062 L 137.484375 40.554688 L 141.082031 40.554688 L 141.082031 36.539062 Z M 142.003906 36.539062 "/>
<path style=" stroke:none;fill-rule:nonzero;fill:rgb(35.294118%,36.078431%,36.470588%);fill-opacity:1;" d="M 146.976562 37.507812 L 146.976562 40.683594 L 149.675781 40.683594 L 149.675781 41.605469 L 146.976562 41.605469 L 146.976562 44.847656 L 149.972656 44.847656 L 149.972656 45.824219 L 146.0625 45.824219 L 146.0625 36.539062 L 149.972656 36.539062 L 149.972656 37.507812 Z M 146.976562 37.507812 "/>
<path style=" stroke:none;fill-rule:nonzero;fill:rgb(35.294118%,36.078431%,36.470588%);fill-opacity:1;" d="M 158.078125 36.539062 L 158.078125 37.507812 L 156.078125 37.507812 L 156.078125 45.824219 L 155.160156 45.824219 L 155.160156 37.507812 L 153.164062 37.507812 L 153.164062 36.539062 Z M 158.078125 36.539062 "/>
<path style=" stroke:none;fill-rule:nonzero;fill:rgb(35.294118%,36.078431%,36.470588%);fill-opacity:1;" d="M 161.574219 36.539062 L 162.488281 36.539062 L 162.488281 45.824219 L 161.574219 45.824219 Z M 161.574219 36.539062 "/>
<path style=" stroke:none;fill-rule:nonzero;fill:rgb(35.294118%,36.078431%,36.470588%);fill-opacity:1;" d="M 169.679688 36.441406 C 170.476562 36.414062 171.246094 36.71875 171.816406 37.28125 C 172.425781 37.910156 172.835938 38.703125 173 39.566406 L 172.035156 39.566406 C 171.882812 39.007812 171.582031 38.503906 171.160156 38.105469 C 170.761719 37.746094 170.242188 37.550781 169.707031 37.558594 C 169.257812 37.554688 168.820312 37.710938 168.472656 37.996094 C 168.078125 38.332031 167.777344 38.769531 167.605469 39.261719 C 167.382812 39.878906 167.273438 40.535156 167.285156 41.195312 C 167.273438 41.84375 167.382812 42.492188 167.605469 43.101562 C 167.777344 43.59375 168.078125 44.027344 168.472656 44.363281 C 168.820312 44.652344 169.257812 44.804688 169.707031 44.800781 C 170.242188 44.808594 170.761719 44.613281 171.160156 44.253906 C 171.582031 43.859375 171.882812 43.351562 172.035156 42.792969 L 173 42.792969 C 172.839844 43.65625 172.433594 44.449219 171.828125 45.078125 C 171.261719 45.640625 170.488281 45.945312 169.691406 45.917969 C 169.054688 45.925781 168.433594 45.714844 167.933594 45.320312 C 167.394531 44.878906 166.984375 44.304688 166.742188 43.648438 C 166.167969 42.0625 166.167969 40.324219 166.742188 38.734375 C 166.984375 38.078125 167.394531 37.5 167.933594 37.054688 C 168.433594 36.65625 169.054688 36.445312 169.691406 36.457031 "/>
</g>
</svg>
