<?xml version="1.0" encoding="utf-8"?>
<!-- Generator: Adobe Illustrator 26.0.1, SVG Export Plug-In . SVG Version: 6.00 Build 0)  -->
<svg version="1.1" id="Layer_1" xmlns="http://www.w3.org/2000/svg" xmlns:xlink="http://www.w3.org/1999/xlink" x="0px" y="0px"
	 viewBox="0 0 109.2 22.1" enable-background="new 0 0 109.2 22.1" xml:space="preserve">
<g>
	<path fill-rule="evenodd" clip-rule="evenodd" fill="#F36C23" d="M9,12.5c0.2-0.5,0.7-1.2,1-1.7l1.9-3.4c0.3-0.6,0.6-1.1,1-1.6V13
		h3c0-1.7,0.2-11.9,0-12.6c-0.4-0.1-0.8-0.1-1.2-0.1c-2,0-1.6-0.2-2.1,0.6C11.8,2.3,8.2,8.7,8,8.9L4.3,2.2C4.1,1.8,3.9,1.4,3.7,1.1
		L3.1,0c-1,0.2-2,0.5-3,0.8c0,3.8-0.1,8.4,0,12.1h3V6.1c0.4,0.5,0.7,1.1,1,1.6c0.5,0.9,2.6,4.6,2.9,4.8L9,12.5z"/>
	<path fill-rule="evenodd" clip-rule="evenodd" fill="#F36C23" d="M42.5,10.2c-1,0-2.1,0-3.2,0s-2,0.1-2.7-0.4C35.5,9,35,7,35.4,5.2
		C36.1,2.7,37.6,3,39.3,3c2,0,4.3,0.1,6.2,0l-0.8-2.7c-1.6-0.1-3.3,0-4.9,0s-3.2-0.2-4.4,0.4c-4.6,2.1-4.5,10.8,0.7,12.1
		c1.6,0.2,3.1,0.3,4.7,0.2c1.5,0,3.3,0.1,4.8,0c-0.1-0.6,0-5.3,0-6.4c-1,0.2-2,0.5-3,0.8L42.5,10.2z"/>
	<path fill-rule="evenodd" clip-rule="evenodd" fill="#F36C23" d="M18.3,3c2.3,0.1,5.4,0,7.9,0c1,0,1.6-0.1,2.1,0.6
		c0.3,0.6,0.4,1.4,0.1,2c-0.4,0.7-0.9,0.7-1.9,0.7h-5.1V4c-1,0.2-2,0.5-3,0.9v8c1,0.1,2,0.1,3,0V9c1.9-0.3,5.7,0.3,7.6-0.3
		c4.3-1.4,3.6-8.3-1.9-8.4c-1.5,0-6.6-0.1-7.9,0L18.3,3z"/>
	<path opacity="0.95" fill-rule="evenodd" clip-rule="evenodd" fill="#5A5B5B" d="M65.3,0.3c-1.8,0-3.6,0-5.4,0s-3.7-0.2-5.1,0.2
		c-2,0.6-3.1,2.6-2.6,4.6c0.2,0.8,0.7,1.4,1.3,1.9C54.8,8,56,8,58.1,8h2.7c0.9,0,1.6,0.2,1.6,1s-0.6,1.2-1.5,1.2h-8L52.1,13
		c0.9,0,1.8,0,2.7,0c2,0,6.5,0.2,7.9-0.2c2-0.4,3.3-2.4,2.8-4.4c-0.2-0.8-0.6-1.5-1.2-2c-1.6-1.4-4.5-1.1-7-1.1c-1,0-1.6,0-1.9-0.8
		s0.4-1.3,1.1-1.4c0.6-0.1,7,0,8,0L65.3,0.3z"/>
	<path fill="#5A5C5D" d="M3,20.9c0,0.4-0.2,0.8-0.6,1c-0.2,0.1-0.5,0.2-0.8,0.2c-0.3,0-0.5-0.1-0.8-0.2c-0.2-0.1-0.4-0.3-0.5-0.5
		C0.1,21.3,0,21.1,0,20.8h0.6c0,0.1,0.1,0.3,0.1,0.4c0.1,0.1,0.2,0.2,0.3,0.3c0.2,0.1,0.3,0.1,0.5,0.1c0.2,0,0.4-0.1,0.6-0.2
		c0.1-0.1,0.2-0.3,0.2-0.5c0-0.2,0-0.3-0.1-0.4c-0.1-0.1-0.2-0.2-0.4-0.3L1.3,20c-0.2-0.1-0.5-0.2-0.7-0.3c-0.2-0.1-0.3-0.2-0.4-0.4
		C0,19.1,0,18.9,0,18.7c0-0.2,0.1-0.4,0.2-0.6c0.1-0.2,0.3-0.3,0.5-0.4c0.2-0.1,0.5-0.2,0.7-0.1c0.4,0,0.7,0.1,1,0.3
		c0.2,0.2,0.4,0.5,0.5,0.8H2.3c0-0.2-0.1-0.4-0.3-0.5c-0.3-0.3-0.8-0.3-1.2,0c-0.1,0.1-0.2,0.3-0.2,0.5c0,0.2,0,0.3,0.1,0.4
		c0.1,0.1,0.2,0.2,0.3,0.2c0.2,0.1,0.4,0.1,0.6,0.2c0.2,0.1,0.5,0.2,0.7,0.3c0.2,0.1,0.3,0.2,0.5,0.4C3,20.4,3,20.6,3,20.9"/>
	<rect x="5.4" y="17.6" fill="#5A5C5D" width="0.6" height="4.5"/>
	<polygon fill="#5A5C5D" points="13,17.6 13,22 12.4,22 12.4,18.5 11,22 10.5,22 9.1,18.5 9.1,22 8.5,22 8.5,17.6 9.2,17.6 
		10.8,21.3 12.3,17.6 	"/>
	<path fill="#5A5C5D" d="M16.9,19.7c0.3,0,0.5,0,0.8-0.2c0.2-0.2,0.2-0.4,0.2-0.6c0-0.2-0.1-0.5-0.2-0.6c-0.2-0.2-0.5-0.3-0.8-0.2
		h-0.8v1.7L16.9,19.7z M16.1,20.2V22h-0.6v-4.5H17c0.4,0,0.8,0.1,1.1,0.4c0.3,0.3,0.4,0.6,0.4,1c0,0.4-0.1,0.7-0.4,1
		c-0.3,0.3-0.7,0.4-1.1,0.4L16.1,20.2z"/>
	<polygon fill="#5A5C5D" points="21.4,21.6 22.9,21.6 22.9,22 20.8,22 20.8,17.6 21.4,17.6 	"/>
	<polygon fill="#5A5C5D" points="25.7,18 25.7,19.5 27.4,19.5 27.4,20 25.7,20 25.7,21.6 27.6,21.6 27.6,22 25.2,22 25.2,17.6 
		27.6,17.6 27.6,18 	"/>
	<path fill="#5A5C5D" d="M31.5,19.9c0-0.2,0.1-0.4,0.2-0.6c0.3-0.3,0.8-0.3,1.1,0c0,0,0,0,0,0c0.1,0.1,0.2,0.3,0.2,0.6
		c0,0.4-0.4,0.8-0.8,0.8c-0.2,0-0.4-0.1-0.5-0.2C31.5,20.3,31.4,20.1,31.5,19.9"/>
	<path fill="#5A5C5D" d="M38.4,19.7c0.3,0,0.5-0.1,0.8-0.2c0.2-0.2,0.2-0.4,0.2-0.6c0-0.2-0.1-0.5-0.2-0.6c-0.2-0.2-0.5-0.2-0.8-0.2
		h-0.8v1.7L38.4,19.7z M37.6,20.2V22H37v-4.5h1.4c0.4,0,0.8,0.1,1.2,0.4c0.3,0.3,0.4,0.6,0.4,1c0,0.4-0.1,0.7-0.4,1
		c-0.3,0.3-0.7,0.4-1.1,0.4L37.6,20.2z"/>
	<path fill="#5A5C5D" d="M42.8,17.6v2.7c0,0.4,0.1,0.7,0.3,1c0.2,0.2,0.5,0.3,0.8,0.3c0.3,0,0.6-0.1,0.8-0.3c0.2-0.3,0.3-0.6,0.3-1
		v-2.7h0.6v2.7c0,0.5-0.1,1-0.4,1.4c-0.7,0.6-1.7,0.6-2.4,0c-0.3-0.4-0.5-0.9-0.4-1.4v-2.7H42.8z"/>
	<path fill="#5A5C5D" d="M48.6,19.8h0.8c0.7,0,1-0.3,1-0.9s-0.3-0.9-1-0.9h-0.8V19.8z M50.4,22l-1.1-1.8h-0.6V22h-0.6v-4.5h1.5
		c0.4,0,0.8,0.1,1.1,0.4c0.3,0.3,0.4,0.6,0.4,1c0,0.3-0.1,0.6-0.3,0.9c-0.2,0.2-0.5,0.4-0.9,0.4l1.2,1.8L50.4,22z"/>
	<polygon fill="#5A5C5D" points="54,18 54,19.5 55.7,19.5 55.7,20 54,20 54,21.6 55.8,21.6 55.8,22 53.4,22 53.4,17.6 55.8,17.6 
		55.8,18 	"/>
	<path fill="#5A5C5D" d="M59.7,19.9c0-0.4,0.3-0.8,0.8-0.8c0.2,0,0.4,0.1,0.6,0.2c0.1,0.1,0.2,0.4,0.2,0.6c0,0.2-0.1,0.4-0.2,0.5
		c-0.3,0.3-0.8,0.3-1.1,0c0,0,0,0,0,0C59.8,20.3,59.7,20.1,59.7,19.9"/>
	<path fill="#5A5C5D" d="M67.7,20.5l-0.8-2.2l-0.8,2.2H67.7z M67.8,21h-2l-0.4,1h-0.6l1.7-4.4h0.7l1.7,4.4h-0.6L67.8,21z"/>
	<polygon fill="#5A5C5D" points="71.6,18 71.6,19.5 73.3,19.5 73.3,20 71.6,20 71.6,21.6 73.5,21.6 73.5,22 71.1,22 71.1,17.6 
		73.5,17.6 73.5,18 	"/>
	<path fill="#5A5C5D" d="M78.7,20.9c0,0.4-0.2,0.8-0.6,1c-0.2,0.1-0.5,0.2-0.8,0.2c-0.3,0-0.5-0.1-0.8-0.2c-0.2-0.1-0.4-0.3-0.6-0.5
		c-0.1-0.2-0.2-0.4-0.2-0.6h0.6c0,0.1,0.1,0.3,0.1,0.4c0.1,0.1,0.2,0.2,0.3,0.3c0.2,0.1,0.3,0.1,0.5,0.1c0.2,0,0.4-0.1,0.6-0.2
		c0.1-0.1,0.2-0.3,0.2-0.5c0-0.2,0-0.3-0.2-0.4c-0.1-0.1-0.2-0.2-0.3-0.3L77,20c-0.2-0.1-0.5-0.2-0.7-0.3c-0.2-0.1-0.3-0.2-0.4-0.4
		c-0.1-0.2-0.2-0.4-0.2-0.7c0-0.2,0.1-0.4,0.2-0.6c0.1-0.2,0.3-0.3,0.5-0.4c0.2-0.1,0.5-0.2,0.7-0.1c0.4,0,0.7,0.1,1,0.3
		c0.2,0.2,0.4,0.5,0.4,0.8h-0.6c0-0.2-0.1-0.4-0.3-0.5c-0.3-0.3-0.8-0.3-1.2,0c-0.1,0.1-0.2,0.3-0.2,0.5c0,0.2,0,0.3,0.1,0.4
		c0.1,0.1,0.2,0.2,0.3,0.2c0.2,0.1,0.4,0.1,0.6,0.2c0.2,0.1,0.5,0.2,0.7,0.3c0.2,0.1,0.3,0.2,0.4,0.4C78.6,20.4,78.7,20.7,78.7,20.9
		"/>
	<polygon fill="#5A5C5D" points="83.8,17.6 83.8,18 82.6,18 82.6,22 82,22 82,18 80.8,18 80.8,17.6 	"/>
	<polygon fill="#5A5C5D" points="89.5,17.6 89.5,22 88.9,22 88.9,20 86.6,20 86.6,22 86.1,22 86.1,17.6 86.6,17.6 86.6,19.5 
		88.9,19.5 88.9,17.6 	"/>
	<polygon fill="#5A5C5D" points="92.6,18 92.6,19.5 94.3,19.5 94.3,20 92.6,20 92.6,21.6 94.5,21.6 94.5,22 92,22 92,17.6 
		94.5,17.6 94.5,18 	"/>
	<polygon fill="#5A5C5D" points="99.6,17.6 99.6,18 98.3,18 98.3,22 97.8,22 97.8,18 96.5,18 96.5,17.6 	"/>
	<rect x="101.8" y="17.6" fill="#5A5C5D" width="0.6" height="4.5"/>
	<path fill="#5A5C5D" d="M106.9,17.5c0.5,0,1,0.1,1.4,0.4c0.4,0.3,0.6,0.7,0.7,1.1h-0.6c-0.1-0.3-0.3-0.5-0.6-0.7
		c-0.3-0.2-0.6-0.3-0.9-0.3c-0.3,0-0.5,0.1-0.8,0.2c-0.2,0.1-0.4,0.4-0.6,0.6c-0.1,0.3-0.2,0.6-0.2,0.9c0,0.3,0.1,0.6,0.2,0.9
		c0.1,0.3,0.3,0.5,0.6,0.6c0.2,0.1,0.5,0.2,0.8,0.2c0.3,0,0.7-0.1,0.9-0.3c0.3-0.2,0.4-0.4,0.6-0.7h0.6c-0.1,0.4-0.4,0.8-0.7,1.1
		c-0.4,0.3-0.9,0.4-1.4,0.4c-0.4,0-0.8-0.1-1.1-0.3c-0.3-0.2-0.6-0.5-0.8-0.8c-0.2-0.4-0.3-0.8-0.3-1.2c0-0.4,0.1-0.8,0.3-1.2
		c0.2-0.3,0.4-0.6,0.8-0.8C106.2,17.6,106.6,17.5,106.9,17.5"/>
	
		<text transform="matrix(0.6323 0 0 1 65.8408 12.3438)" opacity="0.96" fill="#5A5B5B" stroke="#5A5B5B" stroke-width="1.5" stroke-miterlimit="10" font-family="'Verdana'" font-size="15.2318px" letter-spacing="1.6">urfaces</text>
</g>
</svg>
