<?xml version="1.0" encoding="utf-8"?>
<!-- Generator: Adobe Illustrator 26.0.1, SVG Export Plug-In . SVG Version: 6.00 Build 0)  -->
<svg version="1.1" id="Layer_1" xmlns="http://www.w3.org/2000/svg" xmlns:xlink="http://www.w3.org/1999/xlink" x="0px" y="0px"
	 viewBox="0 0 109.2 22.1" enable-background="new 0 0 109.2 22.1" xml:space="preserve">
<g>
	<path fill-rule="evenodd" clip-rule="evenodd" fill="#F36C23" d="M8.7,12.5c0.2-0.5,0.6-1.2,1-1.7l1.9-3.4c0.3-0.6,0.6-1.1,1-1.6
		V13h2.9c0-1.7,0.2-11.9,0-12.6c-0.4-0.1-0.8-0.1-1.2-0.1c-1.9,0-1.6-0.2-2,0.6C11.4,2.3,8,8.7,7.8,8.9L4.2,2.2
		C4,1.8,3.8,1.4,3.6,1.1L3,0C2,0.2,1,0.5,0.1,0.8c0,3.8-0.1,8.4,0,12.1H3V6.1c0.4,0.5,0.7,1.1,1,1.6c0.5,0.9,2.5,4.6,2.8,4.8
		L8.7,12.5z"/>
	<path fill-rule="evenodd" clip-rule="evenodd" fill="#F36C23" d="M41.2,10.2c-1,0-2.1,0-3.1,0c-1,0-1.9,0.1-2.6-0.4
		C34.4,9,34,7,34.4,5.2C35,2.7,36.4,3,38.1,3c1.9,0,4.1,0.1,6,0l-0.8-2.7c-1.5-0.1-3.2,0-4.7,0c-1.5,0-3.1-0.2-4.3,0.4
		C29.9,2.8,30,11.6,35,12.8c1.5,0.2,3,0.3,4.6,0.2c1.5,0,3.2,0.1,4.7,0c-0.1-0.6,0-5.3,0-6.4c-1,0.2-2,0.5-2.9,0.8L41.2,10.2z"/>
	<path fill-rule="evenodd" clip-rule="evenodd" fill="#F36C23" d="M17.7,3C20,3.1,23,3,25.4,3c1,0,1.6-0.1,2,0.6
		c0.3,0.6,0.4,1.4,0.1,2c-0.4,0.7-0.8,0.7-1.8,0.7h-5V4c-1,0.2-2,0.5-2.9,0.9v8c1,0.1,1.9,0.1,2.9,0V9c1.8-0.3,5.5,0.3,7.4-0.3
		c4.2-1.4,3.5-8.3-1.8-8.4c-1.5,0-6.4-0.1-7.7,0L17.7,3z"/>
	<path opacity="0.95" fill-rule="evenodd" clip-rule="evenodd" fill="#5A5B5B" d="M63.3,0.3c-1.7,0-3.5,0-5.2,0s-3.6-0.2-4.9,0.2
		c-1.9,0.6-3,2.6-2.5,4.6c0.2,0.8,0.7,1.4,1.3,1.9C53.2,8,54.3,8,56.3,8h2.6c0.9,0,1.5,0.2,1.6,1s-0.6,1.2-1.4,1.2h-7.8L50.5,13
		c0.9,0,1.7,0,2.6,0c1.9,0,6.3,0.2,7.6-0.2c1.9-0.4,3.2-2.4,2.8-4.4c-0.2-0.8-0.6-1.5-1.1-2c-1.5-1.4-4.4-1.1-6.8-1.1
		c-1,0-1.6,0-1.8-0.8c-0.3-0.8,0.4-1.3,1.1-1.4c0.5-0.1,6.8,0,7.8,0L63.3,0.3z"/>
	<path fill="#5A5C5D" d="M2.9,20.9c0,0.4-0.2,0.8-0.6,1c-0.2,0.1-0.5,0.2-0.7,0.2c-0.3,0-0.5-0.1-0.8-0.2c-0.2-0.1-0.4-0.3-0.5-0.5
		C0.1,21.3,0,21.1,0,20.8h0.6c0,0.1,0.1,0.3,0.1,0.4c0.1,0.1,0.2,0.2,0.3,0.3c0.1,0.1,0.3,0.1,0.5,0.1c0.2,0,0.4-0.1,0.6-0.2
		c0.1-0.1,0.2-0.3,0.2-0.5c0-0.2,0-0.3-0.1-0.4c-0.1-0.1-0.2-0.2-0.3-0.3L1.3,20c-0.2-0.1-0.4-0.2-0.7-0.3c-0.2-0.1-0.3-0.2-0.4-0.4
		C0,19.1,0,18.9,0,18.7c0-0.2,0.1-0.4,0.2-0.6c0.1-0.2,0.3-0.3,0.5-0.4c0.2-0.1,0.5-0.2,0.7-0.1c0.3,0,0.7,0.1,1,0.3
		c0.2,0.2,0.4,0.5,0.4,0.8H2.2c0-0.2-0.1-0.4-0.3-0.5c-0.3-0.3-0.8-0.3-1.1,0c-0.1,0.1-0.2,0.3-0.2,0.5c0,0.2,0,0.3,0.1,0.4
		c0.1,0.1,0.2,0.2,0.3,0.2c0.2,0.1,0.4,0.1,0.5,0.2c0.2,0.1,0.5,0.2,0.7,0.3c0.2,0.1,0.3,0.2,0.4,0.4C2.9,20.4,2.9,20.6,2.9,20.9"/>
	<rect x="5.2" y="17.6" fill="#5A5C5D" width="0.6" height="4.5"/>
	<polygon fill="#5A5C5D" points="12.6,17.6 12.6,22 12,22 12,18.5 10.7,22 10.2,22 8.8,18.5 8.8,22 8.3,22 8.3,17.6 8.9,17.6 
		10.4,21.3 11.9,17.6 	"/>
	<path fill="#5A5C5D" d="M16.4,19.7c0.3,0,0.5,0,0.7-0.2c0.2-0.2,0.2-0.4,0.2-0.6c0-0.2-0.1-0.5-0.2-0.6c-0.2-0.2-0.5-0.3-0.7-0.2
		h-0.8v1.7L16.4,19.7z M15.6,20.2V22h-0.6v-4.5h1.4c0.4,0,0.8,0.1,1.1,0.4c0.3,0.3,0.4,0.6,0.4,1c0,0.4-0.1,0.7-0.4,1
		c-0.3,0.3-0.7,0.4-1.1,0.4L15.6,20.2z"/>
	<polygon fill="#5A5C5D" points="20.7,21.6 22.2,21.6 22.2,22 20.2,22 20.2,17.6 20.7,17.6 	"/>
	<polygon fill="#5A5C5D" points="25,18 25,19.5 26.6,19.5 26.6,20 25,20 25,21.6 26.8,21.6 26.8,22 24.4,22 24.4,17.6 26.8,17.6 
		26.8,18 	"/>
	<path fill="#5A5C5D" d="M30.5,19.9c0-0.2,0.1-0.4,0.2-0.6c0.3-0.3,0.8-0.3,1.1,0c0,0,0,0,0,0c0.1,0.1,0.2,0.3,0.2,0.6
		c0,0.4-0.4,0.8-0.8,0.8c-0.2,0-0.4-0.1-0.5-0.2C30.6,20.3,30.5,20.1,30.5,19.9"/>
	<path fill="#5A5C5D" d="M37.2,19.7c0.3,0,0.5-0.1,0.7-0.2c0.2-0.2,0.2-0.4,0.2-0.6c0-0.2-0.1-0.5-0.2-0.6c-0.2-0.2-0.5-0.2-0.7-0.2
		h-0.8v1.7L37.2,19.7z M36.4,20.2V22h-0.6v-4.5h1.4c0.4,0,0.8,0.1,1.1,0.4c0.3,0.3,0.4,0.6,0.4,1c0,0.4-0.1,0.7-0.4,1
		c-0.3,0.3-0.7,0.4-1.1,0.4L36.4,20.2z"/>
	<path fill="#5A5C5D" d="M41.5,17.6v2.7c0,0.4,0.1,0.7,0.3,1c0.2,0.2,0.5,0.3,0.8,0.3c0.3,0,0.6-0.1,0.8-0.3c0.2-0.3,0.3-0.6,0.3-1
		v-2.7h0.6v2.7c0,0.5-0.1,1-0.4,1.4c-0.7,0.6-1.7,0.6-2.3,0c-0.3-0.4-0.5-0.9-0.4-1.4v-2.7H41.5z"/>
	<path fill="#5A5C5D" d="M47.2,19.8H48c0.6,0,1-0.3,1-0.9s-0.3-0.9-1-0.9h-0.8V19.8z M48.9,22l-1.1-1.8h-0.6V22h-0.6v-4.5h1.4
		c0.4,0,0.8,0.1,1.1,0.4c0.3,0.3,0.4,0.6,0.4,1c0,0.3-0.1,0.6-0.3,0.9c-0.2,0.2-0.5,0.4-0.9,0.4l1.2,1.8L48.9,22z"/>
	<polygon fill="#5A5C5D" points="52.3,18 52.3,19.5 54,19.5 54,20 52.3,20 52.3,21.6 54.2,21.6 54.2,22 51.8,22 51.8,17.6 
		54.2,17.6 54.2,18 	"/>
	<path fill="#5A5C5D" d="M57.9,19.9c0-0.4,0.3-0.8,0.7-0.8c0.2,0,0.4,0.1,0.6,0.2c0.1,0.1,0.2,0.4,0.2,0.6c0,0.2-0.1,0.4-0.2,0.5
		c-0.3,0.3-0.8,0.3-1.1,0c0,0,0,0,0,0C57.9,20.3,57.9,20.1,57.9,19.9"/>
	<path fill="#5A5C5D" d="M65.6,20.5l-0.8-2.2l-0.8,2.2H65.6z M65.8,21h-1.9l-0.4,1h-0.6l1.6-4.4h0.6l1.6,4.4h-0.6L65.8,21z"/>
	<polygon fill="#5A5C5D" points="69.5,18 69.5,19.5 71.1,19.5 71.1,20 69.5,20 69.5,21.6 71.3,21.6 71.3,22 68.9,22 68.9,17.6 
		71.3,17.6 71.3,18 	"/>
	<path fill="#5A5C5D" d="M76.3,20.9c0,0.4-0.2,0.8-0.6,1c-0.2,0.1-0.5,0.2-0.7,0.2c-0.3,0-0.5-0.1-0.8-0.2c-0.2-0.1-0.4-0.3-0.5-0.5
		c-0.1-0.2-0.2-0.4-0.2-0.6h0.6c0,0.1,0.1,0.3,0.1,0.4c0.1,0.1,0.2,0.2,0.3,0.3c0.1,0.1,0.3,0.1,0.5,0.1c0.2,0,0.4-0.1,0.6-0.2
		c0.1-0.1,0.2-0.3,0.2-0.5c0-0.2,0-0.3-0.1-0.4c-0.1-0.1-0.2-0.2-0.3-0.3L74.7,20c-0.2-0.1-0.4-0.2-0.7-0.3
		c-0.2-0.1-0.3-0.2-0.4-0.4c-0.1-0.2-0.2-0.4-0.2-0.7c0-0.2,0.1-0.4,0.2-0.6c0.1-0.2,0.3-0.3,0.5-0.4c0.2-0.1,0.5-0.2,0.7-0.1
		c0.3,0,0.7,0.1,1,0.3c0.2,0.2,0.4,0.5,0.4,0.8h-0.6c0-0.2-0.1-0.4-0.3-0.5c-0.3-0.3-0.8-0.3-1.1,0c-0.1,0.1-0.2,0.3-0.2,0.5
		c0,0.2,0,0.3,0.1,0.4c0.1,0.1,0.2,0.2,0.3,0.2c0.2,0.1,0.4,0.1,0.5,0.2c0.2,0.1,0.5,0.2,0.7,0.3c0.2,0.1,0.3,0.2,0.4,0.4
		C76.2,20.4,76.3,20.7,76.3,20.9"/>
	<polygon fill="#5A5C5D" points="81.3,17.6 81.3,18 80.1,18 80.1,22 79.5,22 79.5,18 78.3,18 78.3,17.6 	"/>
	<polygon fill="#5A5C5D" points="86.8,17.6 86.8,22 86.2,22 86.2,20 84,20 84,22 83.4,22 83.4,17.6 84,17.6 84,19.5 86.2,19.5 
		86.2,17.6 	"/>
	<polygon fill="#5A5C5D" points="89.8,18 89.8,19.5 91.4,19.5 91.4,20 89.8,20 89.8,21.6 91.6,21.6 91.6,22 89.2,22 89.2,17.6 
		91.6,17.6 91.6,18 	"/>
	<polygon fill="#5A5C5D" points="96.6,17.6 96.6,18 95.4,18 95.4,22 94.8,22 94.8,18 93.6,18 93.6,17.6 	"/>
	<rect x="98.7" y="17.6" fill="#5A5C5D" width="0.6" height="4.5"/>
	<path fill="#5A5C5D" d="M103.7,17.5c0.5,0,0.9,0.1,1.3,0.4c0.3,0.3,0.6,0.7,0.7,1.1h-0.6c-0.1-0.3-0.3-0.5-0.5-0.7
		c-0.3-0.2-0.6-0.3-0.9-0.3c-0.3,0-0.5,0.1-0.8,0.2c-0.2,0.1-0.4,0.4-0.5,0.6c-0.1,0.3-0.2,0.6-0.2,0.9c0,0.3,0.1,0.6,0.2,0.9
		c0.1,0.3,0.3,0.5,0.5,0.6c0.2,0.1,0.5,0.2,0.8,0.2c0.3,0,0.6-0.1,0.9-0.3c0.2-0.2,0.4-0.4,0.5-0.7h0.6c-0.1,0.4-0.4,0.8-0.7,1.1
		c-0.4,0.3-0.8,0.4-1.3,0.4c-0.4,0-0.8-0.1-1.1-0.3c-0.3-0.2-0.6-0.5-0.7-0.8c-0.2-0.4-0.3-0.8-0.3-1.2c0-0.4,0.1-0.8,0.3-1.2
		c0.2-0.3,0.4-0.6,0.7-0.8C103,17.6,103.3,17.5,103.7,17.5"/>
	
		<text transform="matrix(0.6606 0 0 1 63.8477 12.3438)" opacity="0.96" fill="#5A5B5B" stroke="#5A5B5B" stroke-width="1.5" stroke-miterlimit="10" font-family="'Verdana'" font-size="15.2318px" letter-spacing="1.5">urfaces</text>
</g>
</svg>
